<?xml version="1.0" encoding="UTF-8"?>
<svg version="1.1" xmlns="http://www.w3.org/2000/svg" width="356" height="367">
<path d="M0 0 C12.6615566 11.90230982 20.12734458 28.97098017 20.8125 46.3125 C19.97611603 65.65387925 10.31474679 85.93334101 -3.08203125 99.7890625 C-6.73791058 103.12361247 -10.39754772 105.83752753 -14.6875 108.3125 C-11.52721279 110.41935814 -8.28712452 111.89051905 -4.8125 113.375 C-3.89404297 113.7781543 -3.89404297 113.7781543 -2.95703125 114.18945312 C4.52884815 117.40341205 11.33137723 118.55460777 19.1875 115.875 C32.96951467 109.86102996 39.3153566 95.08699177 45.99829102 82.54150391 C51.49290788 72.24157895 57.04715939 62.46330963 64.3125 53.3125 C64.97507813 52.4565625 65.63765625 51.600625 66.3203125 50.71875 C74.68024677 40.56498368 86.40981593 34.50571678 99.3125 32.3125 C103.52630189 32.07668322 107.73778012 32.0422022 111.95776367 32.01733398 C113.31040948 32.00585307 114.66301137 31.98546274 116.01538086 31.95581055 C124.67207998 31.76649483 131.58613291 32.26010502 139.3125 36.3125 C140.76076172 37.03759766 140.76076172 37.03759766 142.23828125 37.77734375 C164.42789955 51.46881036 177.05382756 74.54218023 183.3125 99.3125 C191.39617432 134.76437839 188.83412986 178.19638952 169.12109375 209.67578125 C158.17036449 225.64066732 144.79439654 236.86920685 125.5078125 240.8984375 C109.3702661 242.98961099 92.32590541 241.84442718 78.703125 232.21875 C62.5716977 219.35578182 54.92468376 200.64528889 52.51904297 180.53613281 C51.39589778 168.44439947 51.19532196 156.15658835 57.3125 145.3125 C57.9725 145.3125 58.6325 145.3125 59.3125 145.3125 C59.42464844 146.31216797 59.42464844 146.31216797 59.5390625 147.33203125 C61.2536798 159.3511623 67.12258695 169.34790869 76.3125 177.3125 C87.67491184 184.26561769 99.361886 186.23155344 112.49414062 183.93017578 C128.39087059 180.08654614 143.72073451 169.3208133 152.3125 155.3125 C163.41300011 135.98231878 166.03378487 113.01252632 160.29296875 91.2890625 C156.03394445 77.62674284 156.03394445 77.62674284 145.75 68.5 C136.82697237 65.69369941 127.88577548 65.34554372 119.3125 69.3125 C108.67811138 75.45376133 101.98113097 85.91510611 95.8125 96.1875 C73.68720911 132.75245443 73.68720911 132.75245443 57.3125 137.3125 C54.5994259 137.47451097 51.99694316 137.54703053 49.2890625 137.5078125 C48.16979874 137.50356766 48.16979874 137.50356766 47.02792358 137.49923706 C44.66428012 137.48811687 42.30102732 137.46302821 39.9375 137.4375 C38.32682842 137.42745962 36.71615085 137.41833562 35.10546875 137.41015625 C31.17433056 137.3882044 27.24348133 137.35373185 23.3125 137.3125 C23.5391333 137.82522461 23.7657666 138.33794922 23.99926758 138.86621094 C35.79764536 165.72909911 40.1066398 193.81577429 30.0625 222.125 C22.39585583 240.51137673 7.12787148 256.95912543 -11.09375 265.3203125 C-32.8843636 273.65587855 -60.50950188 272.0112781 -81.6171875 262.58984375 C-90.43357812 258.48459741 -98.21024686 253.57584711 -105.6875 247.3125 C-106.68394531 246.47976563 -107.68039063 245.64703125 -108.70703125 244.7890625 C-139.76261235 217.99435292 -151.99616768 178.15990992 -155.35546875 138.5390625 C-155.84684325 131.81419773 -156.05154944 125.02085221 -155.25 118.3125 C-155.16878906 117.590625 -155.08757812 116.86875 -155.00390625 116.125 C-154.6875 114.3125 -154.6875 114.3125 -153.6875 112.3125 C-150.6875 113.3125 -150.6875 113.3125 -149.546875 115.2265625 C-146.68100316 122.22978453 -144.41428877 129.31529541 -142.25 136.5625 C-136.44106064 156.00845978 -129.40980399 174.56231622 -117.6875 191.3125 C-117.26597656 191.94285156 -116.84445313 192.57320312 -116.41015625 193.22265625 C-106.42239838 206.54978605 -86.18500574 213.4863688 -70.35546875 215.83984375 C-55.16772351 217.62444614 -39.0908644 217.92300593 -24.6875 212.3125 C-23.75035156 211.95027344 -22.81320313 211.58804688 -21.84765625 211.21484375 C-10.89325608 206.355373 -5.17479006 198.18136865 -0.6875 187.3125 C2.31703528 178.46377719 1.04490148 166.97400381 -2.55859375 158.57421875 C-6.80964641 150.05740391 -12.59882783 144.38441805 -21.6875 141.3125 C-24.37600107 140.77644078 -26.91513333 140.35603195 -29.625 140.0625 C-30.3557373 139.97299072 -31.08647461 139.88348145 -31.83935547 139.79125977 C-36.44071212 139.30464432 -40.65244034 139.42239964 -45.23608398 139.99804688 C-53.48815868 140.99935682 -53.48815868 140.99935682 -56.890625 139.05078125 C-58.93901354 136.61473039 -60.24511994 134.1559509 -61.6875 131.3125 C-62.488718 129.92171937 -63.29513955 128.53392934 -64.10546875 127.1484375 C-71.75485816 113.72680946 -77.32488475 99.77588653 -78.6875 84.3125 C-77.89472656 84.3846875 -77.10195312 84.456875 -76.28515625 84.53125 C-67.86092306 85.20146524 -59.45019173 85.47688381 -51 85.5625 C-49.45227905 85.5944043 -49.45227905 85.5944043 -47.87329102 85.62695312 C-35.65616958 85.68131616 -24.49002879 83.00764038 -15 75.0625 C-8.61645444 68.09104833 -8.61645444 68.09104833 -6.375 59.3125 C-7.90526988 52.58736658 -13.03559943 47.1307237 -18.625 43.375 C-29.34455815 37.46287728 -40.26894996 39.06283084 -51.6875 42.3125 C-66.04110198 46.64389501 -79.83070599 53.02697599 -92.97265625 60.1953125 C-95.6875 61.3125 -95.6875 61.3125 -97.58178711 61.31274414 C-100.97156758 59.70254929 -102.31018393 56.57856261 -104.09375 53.42578125 C-104.50032837 52.7311528 -104.90690674 52.03652435 -105.32580566 51.32084656 C-106.62506222 49.09564057 -107.90664724 46.8608408 -109.1875 44.625 C-110.47200809 42.40930795 -111.76004724 40.19570743 -113.04919434 37.98271179 C-113.84967407 36.60569511 -114.64682489 35.22673595 -115.44006348 33.84553528 C-115.80724487 33.20855209 -116.17442627 32.57156891 -116.55273438 31.9152832 C-117.07903442 31.00113144 -117.07903442 31.00113144 -117.6159668 30.06851196 C-118.66357391 28.35170971 -119.84422568 26.71837837 -121.02539062 25.09057617 C-122.6875 22.3125 -122.6875 22.3125 -122.64086914 20.10839844 C-121.50091691 17.9610262 -120.41281868 16.98737742 -118.43359375 15.578125 C-117.75264648 15.09045654 -117.07169922 14.60278809 -116.37011719 14.1003418 C-115.62922852 13.592854 -114.88833984 13.08536621 -114.125 12.5625 C-113.35704102 12.03245361 -112.58908203 11.50240723 -111.79785156 10.95629883 C-82.44479734 -8.88441458 -30.58107556 -25.62198222 0 0 Z " fill="#FF4400" transform="translate(162.6875,88.6875)"/>
<path d="M0 0 C3.65799716 1.21933239 3.75337287 1.94844872 5.5 5.25 C11.70119027 15.96393764 19.94243823 24.8113165 30 32 C31.05574219 32.81210938 31.05574219 32.81210938 32.1328125 33.640625 C45.6950501 43.54956613 62.76756113 45.82347933 79.09228516 43.73193359 C96.07578615 40.68979141 110.89677352 30.80760213 124.296875 20.46484375 C124.83473633 20.05226318 125.37259766 19.63968262 125.92675781 19.21459961 C127.40792354 18.07108634 128.8762987 16.91106037 130.34375 15.75 C133.00950836 13.99373567 134.85892467 13.36418265 138 13 C138.37769531 13.49886719 138.75539063 13.99773438 139.14453125 14.51171875 C141.91200678 18.12175123 144.70027305 21.68766574 147.703125 25.10546875 C162.20459519 41.63161613 162.20459519 41.63161613 161.85546875 49.0859375 C158.82851342 59.39693601 142.81312129 66.03130929 134 71 C133.36288086 71.3604541 132.72576172 71.7209082 132.06933594 72.09228516 C110.81364868 83.80660763 79.87943566 88.34931058 56.25 82.4375 C36.07518613 76.42081933 18.42234871 61.23911025 8 43 C2.0247964 30.23223004 -5.04604807 13.95083879 0 0 Z " fill="#FF4400" transform="translate(156,32)"/>
<path d="M0 0 C3.006818 1.33999498 4.99762609 2.79845291 7.25 5.1875 C9.6088856 7.6806786 12.0805918 9.9647521 14.671875 12.2109375 C19.22928482 16.16732968 23.61882435 20.28791162 28 24.4375 C28.77472656 25.16904297 29.54945313 25.90058594 30.34765625 26.65429688 C32.233003 28.43490214 34.11709191 30.21681678 36 32 C11.09451568 61.47600866 11.09451568 61.47600866 2.6796875 64.9609375 C-1.29618242 65.01889479 -3.66122911 62.94874372 -6.6875 60.625 C-7.60789063 59.93978271 -7.60789063 59.93978271 -8.546875 59.24072266 C-26.71692926 45.52309036 -26.71692926 45.52309036 -30.87109375 36.00390625 C-31 34 -31 34 -29.59375 32.140625 C-28.9028125 31.51671875 -28.211875 30.8928125 -27.5 30.25 C-24.75574253 27.67163028 -22.13703747 25.11077368 -19.6875 22.25 C-16.21431358 18.20992568 -12.61839192 14.29260898 -8.99487305 10.38769531 C-5.87806543 7.0126137 -2.91595215 3.54756634 0 0 Z " fill="#FF4500" transform="translate(220,6)"/>
</svg>
